<mxfile host="app.diagrams.net" modified="2023-06-16T09:37:29.650Z" agent="Mozilla/5.0 (Windows NT 10.0; Win64; x64) AppleWebKit/537.36 (KHTML, like Gecko) Chrome/114.0.0.0 Safari/537.36 Edg/114.0.1823.43" version="21.4.0" etag="xhsKHuD6d5nmL6e9IQX8" type="github">
  <diagram name="Page-1" id="M__zT0wr2wmmTbQlbQQs">
    <mxGraphModel>
      <root>
        <mxCell id="0" />
        <mxCell id="1" parent="0" />
      </root>
    </mxGraphModel>
  </diagram>
</mxfile>
